<?xml version="1.0" encoding="UTF-8"?>
<svg width="1440" height="320" viewBox="0 0 1440 320" fill="none" xmlns="http://www.w3.org/2000/svg">
    <path d="M0,96L48,112C96,128,192,160,288,186.7C384,213,480,235,576,213.3C672,192,768,128,864,128C960,128,1056,192,1152,208C1248,224,1344,192,1392,176L1440,160L1440,320L1392,320C1344,320,1248,320,1152,320C1056,320,960,320,864,320C768,320,672,320,576,320C480,320,384,320,288,320C192,320,96,320,48,320L0,320Z" fill="url(#gradient)">
        <animate attributeName="d" dur="10s" repeatCount="indefinite" values="M0,96L48,112C96,128,192,160,288,186.7C384,213,480,235,576,213.3C672,192,768,128,864,128C960,128,1056,192,1152,208C1248,224,1344,192,1392,176L1440,160L1440,320L1392,320C1344,320,1248,320,1152,320C1056,320,960,320,864,320C768,320,672,320,576,320C480,320,384,320,288,320C192,320,96,320,48,320L0,320Z;M0,160L48,144C96,128,192,96,288,106.7C384,117,480,171,576,176C672,181,768,139,864,117.3C960,96,1056,96,1152,117.3C1248,139,1344,181,1392,202.7L1440,224L1440,320L1392,320C1344,320,1248,320,1152,320C1056,320,960,320,864,320C768,320,672,320,576,320C480,320,384,320,288,320C192,320,96,320,48,320L0,320Z;M0,96L48,112C96,128,192,160,288,186.7C384,213,480,235,576,213.3C672,192,768,128,864,128C960,128,1056,192,1152,208C1248,224,1344,192,1392,176L1440,160L1440,320L1392,320C1344,320,1248,320,1152,320C1056,320,960,320,864,320C768,320,672,320,576,320C480,320,384,320,288,320C192,320,96,320,48,320L0,320Z"/>
    </path>
    <defs>
        <linearGradient id="gradient" x1="720" y1="0" x2="720" y2="320" gradientUnits="userSpaceOnUse">
            <stop offset="0" stop-color="#7C4DFF" stop-opacity="0.2"/>
            <stop offset="1" stop-color="#7C4DFF" stop-opacity="0"/>
        </linearGradient>
    </defs>
</svg>
